<svg width="199" height="40" viewBox="0 0 199 40" fill="none" xmlns="http://www.w3.org/2000/svg">
<g clip-path="url(#clip0_55_375)">
<path d="M0 40L9.375 0V30.625L0 40Z" fill="#00DDFF"/>
<path d="M9.375 30.625H26.25L0 40L9.375 30.625Z" fill="#00AFCA"/>
<path d="M37.728 31V13.12H40.992V28.12H48.648V31H37.728ZM50.4953 31V17.944H53.6393V31H50.4953ZM50.4953 16.48V13.12H53.6393V16.48H50.4953ZM63.6701 31.288C62.7261 31.288 61.8541 31.104 61.0541 30.736C60.2701 30.352 59.6461 29.808 59.1821 29.104L59.4941 28.48V31H56.5421V12.832H59.6861V20.536L59.2061 19.888C59.6541 19.184 60.2621 18.64 61.0301 18.256C61.7981 17.856 62.6861 17.656 63.6941 17.656C64.9261 17.656 66.0381 17.96 67.0301 18.568C68.0221 19.176 68.8061 19.992 69.3821 21.016C69.9741 22.04 70.2701 23.192 70.2701 24.472C70.2701 25.736 69.9821 26.888 69.4061 27.928C68.8301 28.968 68.0461 29.792 67.0541 30.4C66.0621 30.992 64.9341 31.288 63.6701 31.288ZM63.3101 28.408C64.0301 28.408 64.6701 28.24 65.2301 27.904C65.7901 27.568 66.2221 27.104 66.5261 26.512C66.8461 25.92 67.0061 25.24 67.0061 24.472C67.0061 23.704 66.8461 23.032 66.5261 22.456C66.2221 21.864 65.7901 21.4 65.2301 21.064C64.6701 20.712 64.0301 20.536 63.3101 20.536C62.6221 20.536 61.9981 20.704 61.4381 21.04C60.8941 21.376 60.4621 21.848 60.1421 22.456C59.8381 23.048 59.6861 23.72 59.6861 24.472C59.6861 25.24 59.8381 25.92 60.1421 26.512C60.4621 27.104 60.8941 27.568 61.4381 27.904C61.9981 28.24 62.6221 28.408 63.3101 28.408ZM78.8591 31.288C77.5151 31.288 76.3391 30.984 75.3311 30.376C74.3231 29.768 73.5391 28.944 72.9791 27.904C72.4191 26.864 72.1391 25.712 72.1391 24.448C72.1391 23.136 72.4191 21.976 72.9791 20.968C73.5551 19.944 74.3311 19.136 75.3071 18.544C76.2991 17.952 77.4031 17.656 78.6191 17.656C79.6431 17.656 80.5391 17.824 81.3071 18.16C82.0911 18.496 82.7551 18.96 83.2991 19.552C83.8431 20.144 84.2591 20.824 84.5471 21.592C84.8351 22.344 84.9791 23.16 84.9791 24.04C84.9791 24.264 84.9631 24.496 84.9311 24.736C84.9151 24.976 84.8751 25.184 84.8111 25.36H74.7311V22.96H83.0351L81.5471 24.088C81.6911 23.352 81.6511 22.696 81.4271 22.12C81.2191 21.544 80.8671 21.088 80.3711 20.752C79.8911 20.416 79.3071 20.248 78.6191 20.248C77.9631 20.248 77.3791 20.416 76.8671 20.752C76.3551 21.072 75.9631 21.552 75.6911 22.192C75.4351 22.816 75.3391 23.576 75.4031 24.472C75.3391 25.272 75.4431 25.984 75.7151 26.608C76.0031 27.216 76.4191 27.688 76.9631 28.024C77.5231 28.36 78.1631 28.528 78.8831 28.528C79.6031 28.528 80.2111 28.376 80.7071 28.072C81.2191 27.768 81.6191 27.36 81.9071 26.848L84.4511 28.096C84.1951 28.72 83.7951 29.272 83.2511 29.752C82.7071 30.232 82.0591 30.608 81.3071 30.88C80.5711 31.152 79.7551 31.288 78.8591 31.288ZM87.3624 31V17.944H90.3144V20.848L90.0744 20.416C90.3784 19.44 90.8504 18.76 91.4904 18.376C92.1464 17.992 92.9304 17.8 93.8424 17.8H94.6104V20.584H93.4824C92.5864 20.584 91.8664 20.864 91.3224 21.424C90.7784 21.968 90.5064 22.736 90.5064 23.728V31H87.3624ZM102.643 31.144C101.171 31.144 100.027 30.744 99.2106 29.944C98.4106 29.128 98.0106 27.984 98.0106 26.512V20.752H95.7546V17.944H95.9946C96.6346 17.944 97.1306 17.776 97.4826 17.44C97.8346 17.104 98.0106 16.616 98.0106 15.976V14.968H101.155V17.944H104.155V20.752H101.155V26.344C101.155 26.776 101.227 27.144 101.371 27.448C101.531 27.752 101.771 27.984 102.091 28.144C102.427 28.304 102.851 28.384 103.363 28.384C103.475 28.384 103.603 28.376 103.747 28.36C103.907 28.344 104.059 28.328 104.203 28.312V31C103.979 31.032 103.723 31.064 103.435 31.096C103.147 31.128 102.883 31.144 102.643 31.144ZM108.189 36.304C107.837 36.304 107.493 36.272 107.157 36.208C106.821 36.16 106.517 36.072 106.245 35.944V33.304C106.453 33.352 106.701 33.4 106.989 33.448C107.293 33.496 107.573 33.52 107.829 33.52C108.549 33.52 109.069 33.352 109.389 33.016C109.725 32.68 110.021 32.24 110.277 31.696L111.141 29.68L111.093 32.32L105.405 17.944H108.789L112.773 28.552H111.573L115.533 17.944H118.941L113.253 32.32C112.917 33.168 112.509 33.888 112.029 34.48C111.549 35.072 110.989 35.52 110.349 35.824C109.725 36.144 109.005 36.304 108.189 36.304ZM121.194 31V27.64H124.362V31H121.194ZM133.745 31.288C132.353 31.288 131.137 30.96 130.097 30.304C129.073 29.632 128.369 28.728 127.985 27.592L130.337 26.464C130.673 27.2 131.137 27.776 131.729 28.192C132.337 28.608 133.009 28.816 133.745 28.816C134.321 28.816 134.777 28.688 135.113 28.432C135.449 28.176 135.617 27.84 135.617 27.424C135.617 27.168 135.545 26.96 135.401 26.8C135.273 26.624 135.089 26.48 134.849 26.368C134.625 26.24 134.377 26.136 134.105 26.056L131.969 25.456C130.865 25.136 130.025 24.648 129.449 23.992C128.889 23.336 128.609 22.56 128.609 21.664C128.609 20.864 128.809 20.168 129.209 19.576C129.625 18.968 130.193 18.496 130.913 18.16C131.649 17.824 132.489 17.656 133.433 17.656C134.665 17.656 135.753 17.952 136.697 18.544C137.641 19.136 138.313 19.968 138.713 21.04L136.313 22.168C136.089 21.576 135.713 21.104 135.185 20.752C134.657 20.4 134.065 20.224 133.409 20.224C132.881 20.224 132.465 20.344 132.161 20.584C131.857 20.824 131.705 21.136 131.705 21.52C131.705 21.76 131.769 21.968 131.897 22.144C132.025 22.32 132.201 22.464 132.425 22.576C132.665 22.688 132.937 22.792 133.241 22.888L135.329 23.512C136.401 23.832 137.225 24.312 137.801 24.952C138.393 25.592 138.689 26.376 138.689 27.304C138.689 28.088 138.481 28.784 138.065 29.392C137.649 29.984 137.073 30.448 136.337 30.784C135.601 31.12 134.737 31.288 133.745 31.288ZM141.105 35.8V17.944H144.057V20.536L143.769 19.888C144.217 19.184 144.825 18.64 145.593 18.256C146.361 17.856 147.249 17.656 148.257 17.656C149.489 17.656 150.601 17.96 151.593 18.568C152.585 19.176 153.369 19.992 153.945 21.016C154.537 22.04 154.833 23.192 154.833 24.472C154.833 25.736 154.545 26.888 153.969 27.928C153.393 28.968 152.609 29.792 151.617 30.4C150.625 30.992 149.497 31.288 148.233 31.288C147.289 31.288 146.417 31.104 145.617 30.736C144.833 30.352 144.209 29.808 143.745 29.104L144.249 28.48V35.8H141.105ZM147.873 28.408C148.593 28.408 149.233 28.24 149.793 27.904C150.353 27.568 150.785 27.104 151.089 26.512C151.409 25.92 151.569 25.24 151.569 24.472C151.569 23.704 151.409 23.032 151.089 22.456C150.785 21.864 150.353 21.4 149.793 21.064C149.233 20.712 148.593 20.536 147.873 20.536C147.185 20.536 146.561 20.704 146.001 21.04C145.457 21.376 145.025 21.848 144.705 22.456C144.401 23.048 144.249 23.72 144.249 24.472C144.249 25.24 144.401 25.92 144.705 26.512C145.025 27.104 145.457 27.568 146.001 27.904C146.561 28.24 147.185 28.408 147.873 28.408ZM161.19 31.288C160.278 31.288 159.486 31.136 158.814 30.832C158.142 30.528 157.622 30.096 157.254 29.536C156.886 28.96 156.702 28.296 156.702 27.544C156.702 26.824 156.862 26.184 157.182 25.624C157.502 25.048 157.998 24.568 158.67 24.184C159.342 23.8 160.19 23.528 161.214 23.368L165.486 22.672V25.072L161.814 25.696C161.19 25.808 160.726 26.008 160.422 26.296C160.118 26.584 159.966 26.96 159.966 27.424C159.966 27.872 160.134 28.232 160.47 28.504C160.822 28.76 161.254 28.888 161.766 28.888C162.422 28.888 162.998 28.752 163.494 28.48C164.006 28.192 164.398 27.8 164.67 27.304C164.958 26.808 165.102 26.264 165.102 25.672V22.312C165.102 21.752 164.878 21.288 164.43 20.92C163.998 20.536 163.422 20.344 162.702 20.344C162.03 20.344 161.43 20.528 160.902 20.896C160.39 21.248 160.014 21.72 159.774 22.312L157.206 21.064C157.462 20.376 157.862 19.784 158.406 19.288C158.966 18.776 159.622 18.376 160.374 18.088C161.126 17.8 161.942 17.656 162.822 17.656C163.894 17.656 164.838 17.856 165.654 18.256C166.47 18.64 167.102 19.184 167.55 19.888C168.014 20.576 168.246 21.384 168.246 22.312V31H165.27V28.768L165.942 28.72C165.606 29.28 165.206 29.752 164.742 30.136C164.278 30.504 163.75 30.792 163.158 31C162.566 31.192 161.91 31.288 161.19 31.288ZM177.44 31.288C176.144 31.288 174.976 30.992 173.936 30.4C172.912 29.792 172.104 28.976 171.512 27.952C170.92 26.912 170.624 25.744 170.624 24.448C170.624 23.152 170.92 21.992 171.512 20.968C172.104 19.944 172.912 19.136 173.936 18.544C174.976 17.952 176.144 17.656 177.44 17.656C178.368 17.656 179.232 17.824 180.032 18.16C180.832 18.48 181.52 18.928 182.096 19.504C182.688 20.064 183.112 20.736 183.368 21.52L180.608 22.72C180.368 22.064 179.96 21.536 179.384 21.136C178.824 20.736 178.176 20.536 177.44 20.536C176.752 20.536 176.136 20.704 175.592 21.04C175.064 21.376 174.648 21.84 174.344 22.432C174.04 23.024 173.888 23.704 173.888 24.472C173.888 25.24 174.04 25.92 174.344 26.512C174.648 27.104 175.064 27.568 175.592 27.904C176.136 28.24 176.752 28.408 177.44 28.408C178.192 28.408 178.848 28.208 179.408 27.808C179.968 27.408 180.368 26.872 180.608 26.2L183.368 27.448C183.112 28.184 182.696 28.848 182.12 29.44C181.544 30.016 180.856 30.472 180.056 30.808C179.256 31.128 178.384 31.288 177.44 31.288ZM191.945 31.288C190.601 31.288 189.425 30.984 188.417 30.376C187.409 29.768 186.625 28.944 186.065 27.904C185.505 26.864 185.225 25.712 185.225 24.448C185.225 23.136 185.505 21.976 186.065 20.968C186.641 19.944 187.417 19.136 188.393 18.544C189.385 17.952 190.489 17.656 191.705 17.656C192.729 17.656 193.625 17.824 194.393 18.16C195.177 18.496 195.841 18.96 196.385 19.552C196.929 20.144 197.345 20.824 197.633 21.592C197.921 22.344 198.065 23.16 198.065 24.04C198.065 24.264 198.049 24.496 198.017 24.736C198.001 24.976 197.961 25.184 197.897 25.36H187.817V22.96H196.121L194.633 24.088C194.777 23.352 194.737 22.696 194.513 22.12C194.305 21.544 193.953 21.088 193.457 20.752C192.977 20.416 192.393 20.248 191.705 20.248C191.049 20.248 190.465 20.416 189.953 20.752C189.441 21.072 189.049 21.552 188.777 22.192C188.521 22.816 188.425 23.576 188.489 24.472C188.425 25.272 188.529 25.984 188.801 26.608C189.089 27.216 189.505 27.688 190.049 28.024C190.609 28.36 191.249 28.528 191.969 28.528C192.689 28.528 193.297 28.376 193.793 28.072C194.305 27.768 194.705 27.36 194.993 26.848L197.537 28.096C197.281 28.72 196.881 29.272 196.337 29.752C195.793 30.232 195.145 30.608 194.393 30.88C193.657 31.152 192.841 31.288 191.945 31.288Z" fill="#1B1A1A"/>
</g>
<defs>
<clipPath id="clip0_55_375">
<rect width="199" height="40" fill="white"/>
</clipPath>
</defs>
</svg>
